<svg width="278" height="44" viewBox="0 0 278 44" fill="none" xmlns="http://www.w3.org/2000/svg">
<g clip-path="url(#clip0_309_7833)">
<path d="M75.0583 13.1966H46.6527C45.6568 13.1966 44.8505 14.0441 44.8505 15.091V19.0221C44.8505 20.069 44.0443 20.9165 43.0484 20.9165H40.8058C39.8099 20.9165 39.0036 20.069 39.0036 19.0221V3.02927C39.0036 0.57467 36.3681 -0.856784 34.4643 0.560427L1.21451 25.3106C-1.07546 27.015 0.0717853 30.8037 2.87667 30.8037H31.2823C32.2782 30.8037 33.0845 29.9563 33.0845 28.9094V24.9782C33.0845 23.9313 33.8907 23.0839 34.8866 23.0839H37.1292C38.1251 23.0839 38.9314 23.9313 38.9314 24.9782V40.9711C38.9314 43.4257 41.5669 44.8572 43.4707 43.44L76.7182 18.6898C79.0082 16.9854 77.861 13.1966 75.0561 13.1966H75.0583Z" fill="white"/>
<path d="M105.035 13.1562C107.939 13.1562 110.012 14.9627 110.396 17.6405H114.958C114.246 12.3776 110.337 8.98291 105.035 8.98291C98.4289 8.98291 93.9551 14.2458 93.9551 21.9989C93.9551 29.752 98.4289 35.015 105.035 35.015C110.337 35.015 114.249 31.6203 114.958 26.3574H110.396C110.01 29.0351 107.937 30.8417 105.035 30.8417C100.976 30.8417 98.3679 27.3544 98.3679 21.9989C98.3679 16.6434 100.974 13.1562 105.035 13.1562ZM152.155 8.98291C145.726 8.98291 141.017 14.0274 141.017 21.9681C141.017 29.9087 145.728 34.9532 152.155 34.9532C158.583 34.9532 163.293 29.9087 163.293 21.9681C163.293 14.0274 158.612 8.98291 152.155 8.98291ZM152.155 30.8132C148.068 30.8132 145.43 27.3259 145.43 21.9704C145.43 16.615 148.068 13.1277 152.155 13.1277C156.243 13.1277 158.881 16.5841 158.881 21.9704C158.881 27.3568 156.245 30.8132 152.155 30.8132ZM137.173 16.2399C137.173 11.9123 134.093 9.35798 129.59 9.35798H118.718V34.5805H123.133V24.7408H132.79V34.5805H137.173V25.2701C137.173 22.996 136.049 21.7829 133.856 21.7829V21.6595C136.166 20.6933 137.173 18.6707 137.173 16.2423V16.2399ZM129.265 20.6909H123.133V13.4363H129.265C131.396 13.4363 132.849 14.7443 132.849 17.0802C132.849 19.4161 131.396 20.6933 129.265 20.6933V20.6909ZM177.867 13.1562C180.771 13.1562 182.844 14.9627 183.228 17.6405H187.79C187.078 12.3776 183.169 8.98291 177.867 8.98291C171.261 8.98291 166.787 14.2458 166.787 21.9989C166.787 29.752 171.261 35.015 177.867 35.015C183.169 35.015 187.081 31.6203 187.79 26.3574H183.228C182.842 29.0351 180.769 30.8417 177.867 30.8417C173.808 30.8417 171.202 27.3544 171.202 21.9989C171.202 16.6434 173.808 13.1562 177.867 13.1562ZM277.198 13.4672V9.35561H261.408V34.5782H277.198V30.4666H265.823V23.4921H276.399V19.5064H265.823V13.4648H277.198V13.4672ZM198.124 9.35798L188.881 34.5805H193.325L195.694 27.9788H205.026L207.248 34.5805H211.839L202.715 9.35798H198.124ZM197.029 23.993L200.405 14.4951H200.523L203.752 23.993H197.027H197.029ZM238.747 13.4672H246.065V34.5805H250.448V13.4672H257.765V9.35561H238.745V13.4672H238.747ZM230.988 27.6061H230.87L219.287 9.35798H214.725V34.5805H218.842V16.6126H218.96L230.364 34.5805H235.105V9.35798H230.988V27.6061Z" fill="white"/>
</g>
<defs>
<clipPath id="clip0_309_7833">
<rect width="277.2" height="44" fill="white"/>
</clipPath>
</defs>
</svg>
